<?xml version="1.0" encoding="UTF-8"?>
<svg xmlns="http://www.w3.org/2000/svg" xmlns:xlink="http://www.w3.org/1999/xlink" width="375pt" height="374.999991pt" viewBox="0 0 375 374.999991" version="1.2">
<defs>
<clipPath id="clip1">
  <path d="M 8.824219 239 L 57 239 L 57 250 L 8.824219 250 Z M 8.824219 239 "/>
</clipPath>
<clipPath id="clip2">
  <path d="M 206 330 L 336 330 L 336 366.910156 L 206 366.910156 Z M 206 330 "/>
</clipPath>
<clipPath id="clip3">
  <path d="M 309.484375 204.105469 L 335 204.105469 L 335 230 L 309.484375 230 Z M 309.484375 204.105469 "/>
</clipPath>
<clipPath id="clip4">
  <path d="M 326.300781 204.101562 C 317.707031 204.101562 318.242188 207.871094 318.242188 207.871094 L 318.253906 211.773438 L 326.453125 211.773438 L 326.453125 212.945312 L 314.996094 212.945312 C 314.996094 212.945312 309.496094 212.316406 309.496094 221.085938 C 309.496094 229.851562 314.296875 229.542969 314.296875 229.542969 L 317.160156 229.542969 L 317.160156 225.472656 C 317.160156 225.472656 317.007812 220.617188 321.882812 220.617188 L 330.015625 220.617188 C 330.015625 220.617188 334.585938 220.695312 334.585938 216.152344 L 334.585938 208.644531 C 334.585938 208.644531 335.28125 204.101562 326.300781 204.101562 Z M 321.777344 206.726562 C 322.59375 206.726562 323.253906 207.394531 323.253906 208.21875 C 323.253906 209.042969 322.59375 209.710938 321.777344 209.710938 C 320.960938 209.710938 320.304688 209.042969 320.304688 208.21875 C 320.304688 207.394531 320.960938 206.726562 321.777344 206.726562 Z M 321.777344 206.726562 "/>
</clipPath>
<linearGradient id="linear0" gradientUnits="userSpaceOnUse" x1="0.00416775" y1="-0.0040579" x2="1.027757" y2="1.011579" gradientTransform="matrix(25.100575,0,0,25.440316,309.497527,204.102595)">
<stop offset="0" style="stop-color:rgb(21.998596%,49.398804%,72.198486%);stop-opacity:1;"/>
<stop offset="0.125" style="stop-color:rgb(21.99707%,49.383545%,72.171021%);stop-opacity:1;"/>
<stop offset="0.140625" style="stop-color:rgb(21.986389%,49.269104%,71.974182%);stop-opacity:1;"/>
<stop offset="0.15625" style="stop-color:rgb(21.966553%,49.072266%,71.633911%);stop-opacity:1;"/>
<stop offset="0.171875" style="stop-color:rgb(21.948242%,48.875427%,71.29364%);stop-opacity:1;"/>
<stop offset="0.1875" style="stop-color:rgb(21.928406%,48.678589%,70.953369%);stop-opacity:1;"/>
<stop offset="0.203125" style="stop-color:rgb(21.910095%,48.48175%,70.611572%);stop-opacity:1;"/>
<stop offset="0.21875" style="stop-color:rgb(21.890259%,48.286438%,70.271301%);stop-opacity:1;"/>
<stop offset="0.234375" style="stop-color:rgb(21.870422%,48.0896%,69.93103%);stop-opacity:1;"/>
<stop offset="0.25" style="stop-color:rgb(21.852112%,47.892761%,69.590759%);stop-opacity:1;"/>
<stop offset="0.265625" style="stop-color:rgb(21.832275%,47.695923%,69.250488%);stop-opacity:1;"/>
<stop offset="0.28125" style="stop-color:rgb(21.813965%,47.499084%,68.908691%);stop-opacity:1;"/>
<stop offset="0.296875" style="stop-color:rgb(21.794128%,47.302246%,68.56842%);stop-opacity:1;"/>
<stop offset="0.3125" style="stop-color:rgb(21.775818%,47.105408%,68.228149%);stop-opacity:1;"/>
<stop offset="0.328125" style="stop-color:rgb(21.755981%,46.908569%,67.887878%);stop-opacity:1;"/>
<stop offset="0.34375" style="stop-color:rgb(21.736145%,46.711731%,67.546082%);stop-opacity:1;"/>
<stop offset="0.359375" style="stop-color:rgb(21.717834%,46.514893%,67.205811%);stop-opacity:1;"/>
<stop offset="0.375" style="stop-color:rgb(21.697998%,46.31958%,66.86554%);stop-opacity:1;"/>
<stop offset="0.390625" style="stop-color:rgb(21.679688%,46.122742%,66.525269%);stop-opacity:1;"/>
<stop offset="0.40625" style="stop-color:rgb(21.659851%,45.925903%,66.184998%);stop-opacity:1;"/>
<stop offset="0.421875" style="stop-color:rgb(21.641541%,45.729065%,65.843201%);stop-opacity:1;"/>
<stop offset="0.4375" style="stop-color:rgb(21.621704%,45.532227%,65.50293%);stop-opacity:1;"/>
<stop offset="0.453125" style="stop-color:rgb(21.601868%,45.335388%,65.162659%);stop-opacity:1;"/>
<stop offset="0.46875" style="stop-color:rgb(21.583557%,45.13855%,64.822388%);stop-opacity:1;"/>
<stop offset="0.484375" style="stop-color:rgb(21.563721%,44.941711%,64.482117%);stop-opacity:1;"/>
<stop offset="0.494335" style="stop-color:rgb(21.54541%,44.744873%,64.14032%);stop-opacity:1;"/>
<stop offset="0.5" style="stop-color:rgb(21.536255%,44.647217%,63.970947%);stop-opacity:1;"/>
<stop offset="0.505665" style="stop-color:rgb(21.525574%,44.548035%,63.800049%);stop-opacity:1;"/>
<stop offset="0.515625" style="stop-color:rgb(21.516418%,44.450378%,63.630676%);stop-opacity:1;"/>
<stop offset="0.53125" style="stop-color:rgb(21.505737%,44.352722%,63.459778%);stop-opacity:1;"/>
<stop offset="0.546875" style="stop-color:rgb(21.487427%,44.155884%,63.119507%);stop-opacity:1;"/>
<stop offset="0.5625" style="stop-color:rgb(21.46759%,43.959045%,62.77771%);stop-opacity:1;"/>
<stop offset="0.578125" style="stop-color:rgb(21.44928%,43.762207%,62.437439%);stop-opacity:1;"/>
<stop offset="0.59375" style="stop-color:rgb(21.429443%,43.565369%,62.097168%);stop-opacity:1;"/>
<stop offset="0.609375" style="stop-color:rgb(21.411133%,43.36853%,61.756897%);stop-opacity:1;"/>
<stop offset="0.625" style="stop-color:rgb(21.391296%,43.171692%,61.416626%);stop-opacity:1;"/>
<stop offset="0.640625" style="stop-color:rgb(21.37146%,42.974854%,61.074829%);stop-opacity:1;"/>
<stop offset="0.65625" style="stop-color:rgb(21.353149%,42.778015%,60.734558%);stop-opacity:1;"/>
<stop offset="0.671875" style="stop-color:rgb(21.333313%,42.582703%,60.394287%);stop-opacity:1;"/>
<stop offset="0.6875" style="stop-color:rgb(21.315002%,42.385864%,60.054016%);stop-opacity:1;"/>
<stop offset="0.703125" style="stop-color:rgb(21.295166%,42.189026%,59.713745%);stop-opacity:1;"/>
<stop offset="0.71875" style="stop-color:rgb(21.276855%,41.992188%,59.371948%);stop-opacity:1;"/>
<stop offset="0.734375" style="stop-color:rgb(21.257019%,41.795349%,59.031677%);stop-opacity:1;"/>
<stop offset="0.75" style="stop-color:rgb(21.237183%,41.598511%,58.691406%);stop-opacity:1;"/>
<stop offset="0.765625" style="stop-color:rgb(21.218872%,41.401672%,58.351135%);stop-opacity:1;"/>
<stop offset="0.78125" style="stop-color:rgb(21.203613%,41.25061%,58.09021%);stop-opacity:1;"/>
<stop offset="0.8125" style="stop-color:rgb(21.199036%,41.19873%,57.998657%);stop-opacity:1;"/>
<stop offset="0.875" style="stop-color:rgb(21.199036%,41.19873%,57.998657%);stop-opacity:1;"/>
<stop offset="1" style="stop-color:rgb(21.199036%,41.19873%,57.998657%);stop-opacity:1;"/>
</linearGradient>
<clipPath id="clip5">
  <path d="M 318 212 L 343.234375 212 L 343.234375 237.855469 L 318 237.855469 Z M 318 212 "/>
</clipPath>
<clipPath id="clip6">
  <path d="M 326.542969 238.15625 C 335.136719 238.15625 334.601562 234.386719 334.601562 234.386719 L 334.589844 230.480469 L 326.390625 230.480469 L 326.390625 229.308594 L 337.847656 229.308594 C 337.847656 229.308594 343.347656 229.941406 343.347656 221.171875 C 343.347656 212.40625 338.546875 212.714844 338.546875 212.714844 L 335.683594 212.714844 L 335.683594 216.785156 C 335.683594 216.785156 335.835938 221.636719 330.960938 221.636719 L 322.828125 221.636719 C 322.828125 221.636719 318.257812 221.5625 318.257812 226.105469 L 318.257812 233.609375 C 318.257812 233.609375 317.5625 238.15625 326.542969 238.15625 Z M 331.066406 235.527344 C 330.25 235.527344 329.589844 234.859375 329.589844 234.035156 C 329.589844 233.210938 330.25 232.546875 331.066406 232.546875 C 331.882812 232.546875 332.539062 233.210938 332.539062 234.035156 C 332.539062 234.859375 331.882812 235.527344 331.066406 235.527344 Z M 331.066406 235.527344 "/>
</clipPath>
<linearGradient id="linear1" gradientUnits="userSpaceOnUse" x1="-0.0326461" y1="-0.00636662" x2="1.005748" y2="0.97745" gradientTransform="matrix(25.101336,0,0,25.440446,318.245297,212.713945)">
<stop offset="0" style="stop-color:rgb(100%,87.799072%,32.199097%);stop-opacity:1;"/>
<stop offset="0.125" style="stop-color:rgb(100%,87.799072%,32.199097%);stop-opacity:1;"/>
<stop offset="0.1875" style="stop-color:rgb(100%,87.799072%,32.199097%);stop-opacity:1;"/>
<stop offset="0.21875" style="stop-color:rgb(100%,87.773132%,32.170105%);stop-opacity:1;"/>
<stop offset="0.234375" style="stop-color:rgb(100%,87.620544%,31.993103%);stop-opacity:1;"/>
<stop offset="0.25" style="stop-color:rgb(100%,87.364197%,31.698608%);stop-opacity:1;"/>
<stop offset="0.265625" style="stop-color:rgb(100%,87.107849%,31.404114%);stop-opacity:1;"/>
<stop offset="0.28125" style="stop-color:rgb(100%,86.851501%,31.109619%);stop-opacity:1;"/>
<stop offset="0.296875" style="stop-color:rgb(100%,86.59668%,30.815125%);stop-opacity:1;"/>
<stop offset="0.3125" style="stop-color:rgb(100%,86.340332%,30.52063%);stop-opacity:1;"/>
<stop offset="0.328125" style="stop-color:rgb(100%,86.083984%,30.226135%);stop-opacity:1;"/>
<stop offset="0.34375" style="stop-color:rgb(100%,85.827637%,29.931641%);stop-opacity:1;"/>
<stop offset="0.359375" style="stop-color:rgb(100%,85.572815%,29.637146%);stop-opacity:1;"/>
<stop offset="0.375" style="stop-color:rgb(100%,85.316467%,29.342651%);stop-opacity:1;"/>
<stop offset="0.390625" style="stop-color:rgb(100%,85.06012%,29.048157%);stop-opacity:1;"/>
<stop offset="0.40625" style="stop-color:rgb(100%,84.803772%,28.753662%);stop-opacity:1;"/>
<stop offset="0.421875" style="stop-color:rgb(100%,84.547424%,28.457642%);stop-opacity:1;"/>
<stop offset="0.4375" style="stop-color:rgb(100%,84.292603%,28.163147%);stop-opacity:1;"/>
<stop offset="0.453125" style="stop-color:rgb(100%,84.036255%,27.868652%);stop-opacity:1;"/>
<stop offset="0.46875" style="stop-color:rgb(100%,83.779907%,27.574158%);stop-opacity:1;"/>
<stop offset="0.481029" style="stop-color:rgb(100%,83.52356%,27.279663%);stop-opacity:1;"/>
<stop offset="0.484375" style="stop-color:rgb(100%,83.396912%,27.133179%);stop-opacity:1;"/>
<stop offset="0.5" style="stop-color:rgb(100%,83.268738%,26.985168%);stop-opacity:1;"/>
<stop offset="0.515625" style="stop-color:rgb(100%,83.01239%,26.690674%);stop-opacity:1;"/>
<stop offset="0.518971" style="stop-color:rgb(100%,82.756042%,26.396179%);stop-opacity:1;"/>
<stop offset="0.53125" style="stop-color:rgb(100%,82.627869%,26.249695%);stop-opacity:1;"/>
<stop offset="0.546875" style="stop-color:rgb(100%,82.499695%,26.101685%);stop-opacity:1;"/>
<stop offset="0.5625" style="stop-color:rgb(100%,82.243347%,25.80719%);stop-opacity:1;"/>
<stop offset="0.578125" style="stop-color:rgb(100%,81.988525%,25.512695%);stop-opacity:1;"/>
<stop offset="0.59375" style="stop-color:rgb(100%,81.732178%,25.218201%);stop-opacity:1;"/>
<stop offset="0.609375" style="stop-color:rgb(100%,81.47583%,24.923706%);stop-opacity:1;"/>
<stop offset="0.625" style="stop-color:rgb(100%,81.219482%,24.629211%);stop-opacity:1;"/>
<stop offset="0.640625" style="stop-color:rgb(100%,80.963135%,24.334717%);stop-opacity:1;"/>
<stop offset="0.65625" style="stop-color:rgb(100%,80.708313%,24.040222%);stop-opacity:1;"/>
<stop offset="0.671875" style="stop-color:rgb(100%,80.451965%,23.745728%);stop-opacity:1;"/>
<stop offset="0.6875" style="stop-color:rgb(100%,80.195618%,23.451233%);stop-opacity:1;"/>
<stop offset="0.703125" style="stop-color:rgb(100%,79.93927%,23.156738%);stop-opacity:1;"/>
<stop offset="0.71875" style="stop-color:rgb(100%,79.684448%,22.862244%);stop-opacity:1;"/>
<stop offset="0.734375" style="stop-color:rgb(100%,79.428101%,22.567749%);stop-opacity:1;"/>
<stop offset="0.75" style="stop-color:rgb(100%,79.171753%,22.273254%);stop-opacity:1;"/>
<stop offset="0.765625" style="stop-color:rgb(100%,78.915405%,21.97876%);stop-opacity:1;"/>
<stop offset="0.78125" style="stop-color:rgb(100%,78.659058%,21.684265%);stop-opacity:1;"/>
<stop offset="0.796875" style="stop-color:rgb(100%,78.404236%,21.389771%);stop-opacity:1;"/>
<stop offset="0.8125" style="stop-color:rgb(100%,78.147888%,21.095276%);stop-opacity:1;"/>
<stop offset="0.828125" style="stop-color:rgb(100%,77.891541%,20.800781%);stop-opacity:1;"/>
<stop offset="0.84375" style="stop-color:rgb(100%,77.635193%,20.506287%);stop-opacity:1;"/>
<stop offset="0.859375" style="stop-color:rgb(100%,77.380371%,20.211792%);stop-opacity:1;"/>
<stop offset="0.875" style="stop-color:rgb(100%,77.124023%,19.917297%);stop-opacity:1;"/>
<stop offset="0.890625" style="stop-color:rgb(100%,76.867676%,19.622803%);stop-opacity:1;"/>
<stop offset="0.90625" style="stop-color:rgb(100%,76.618958%,19.337463%);stop-opacity:1;"/>
<stop offset="0.9375" style="stop-color:rgb(100%,76.499939%,19.198608%);stop-opacity:1;"/>
<stop offset="1" style="stop-color:rgb(100%,76.499939%,19.198608%);stop-opacity:1;"/>
</linearGradient>
<clipPath id="clip7">
  <path d="M 160.984375 134.816406 L 202.234375 134.816406 L 202.234375 176.066406 L 160.984375 176.066406 Z M 160.984375 134.816406 "/>
</clipPath>
<clipPath id="clip8">
  <path d="M 166 144 L 197 144 L 197 176.066406 L 166 176.066406 Z M 166 144 "/>
</clipPath>
<clipPath id="clip9">
  <path d="M 148.5625 87 L 181.5625 87 L 181.5625 124.988281 L 148.5625 124.988281 Z M 148.5625 87 "/>
</clipPath>
<clipPath id="clip10">
  <path d="M 151 78.488281 L 158 78.488281 L 158 85 L 151 85 Z M 151 78.488281 "/>
</clipPath>
<clipPath id="clip11">
  <path d="M 158 78.488281 L 165 78.488281 L 165 85 L 158 85 Z M 158 78.488281 "/>
</clipPath>
<clipPath id="clip12">
  <path d="M 165 78.488281 L 173 78.488281 L 173 85 L 165 85 Z M 165 78.488281 "/>
</clipPath>
<clipPath id="clip13">
  <path d="M 173 78.488281 L 179 78.488281 L 179 85 L 173 85 Z M 173 78.488281 "/>
</clipPath>
<clipPath id="clip14">
  <path d="M 209.550781 19.097656 L 246.253906 19.097656 L 246.253906 55.800781 L 209.550781 55.800781 Z M 209.550781 19.097656 "/>
</clipPath>
<clipPath id="clip15">
  <path d="M 161 310 L 190 310 L 190 324.4375 L 161 324.4375 Z M 161 310 "/>
</clipPath>
<clipPath id="clip16">
  <path d="M 203 288 L 229.636719 288 L 229.636719 315 L 203 315 Z M 203 288 "/>
</clipPath>
<clipPath id="clip17">
  <path d="M 226 318 L 229.636719 318 L 229.636719 322 L 226 322 Z M 226 318 "/>
</clipPath>
<clipPath id="clip18">
  <path d="M 92.707031 61.195312 L 127.128906 61.195312 L 127.128906 95.613281 L 92.707031 95.613281 Z M 92.707031 61.195312 "/>
</clipPath>
</defs>
<g id="surface1">
<path style=" stroke:none;fill-rule:nonzero;fill:rgb(55.288696%,56.079102%,81.568909%);fill-opacity:1;" d="M 232.304688 185.042969 C 225.019531 185.042969 219.109375 183.753906 219.109375 182.167969 C 219.109375 180.582031 225.019531 179.300781 232.304688 179.300781 C 239.59375 179.300781 245.503906 180.582031 245.503906 182.167969 C 245.503906 183.753906 239.59375 185.042969 232.304688 185.042969 "/>
<path style=" stroke:none;fill-rule:nonzero;fill:rgb(55.288696%,56.079102%,81.568909%);fill-opacity:1;" d="M 284.070312 186.832031 C 275.5625 186.832031 268.664062 185.332031 268.664062 183.480469 C 268.664062 182.980469 269.175781 182.511719 270.0625 182.085938 C 253.011719 181.546875 239.914062 178.351562 239.914062 174.492188 C 239.914062 170.253906 255.707031 166.816406 275.195312 166.816406 C 294.679688 166.816406 310.476562 170.253906 310.476562 174.492188 C 310.476562 177.210938 303.988281 179.59375 294.207031 180.960938 C 297.429688 181.574219 299.472656 182.46875 299.472656 183.480469 C 299.472656 185.332031 292.574219 186.832031 284.070312 186.832031 "/>
<path style=" stroke:none;fill-rule:nonzero;fill:rgb(55.288696%,56.079102%,81.568909%);fill-opacity:1;" d="M 232.304688 173.269531 C 228.902344 173.269531 226.144531 172.671875 226.144531 171.929688 C 226.144531 171.1875 228.902344 170.585938 232.304688 170.585938 C 235.710938 170.585938 238.464844 171.1875 238.464844 171.929688 C 238.464844 172.671875 235.710938 173.269531 232.304688 173.269531 "/>
<g clip-path="url(#clip1)" clip-rule="nonzero">
<path style=" stroke:none;fill-rule:nonzero;fill:rgb(55.288696%,56.079102%,81.568909%);fill-opacity:1;" d="M 32.867188 249.445312 C 19.613281 249.445312 8.867188 247.105469 8.867188 244.222656 C 8.867188 241.339844 19.613281 239 32.867188 239 C 46.121094 239 56.867188 241.339844 56.867188 244.222656 C 56.867188 247.105469 46.121094 249.445312 32.867188 249.445312 "/>
</g>
<path style=" stroke:none;fill-rule:nonzero;fill:rgb(55.288696%,56.079102%,81.568909%);fill-opacity:1;" d="M 127.007812 252.695312 C 111.539062 252.695312 98.996094 249.964844 98.996094 246.597656 C 98.996094 245.699219 99.921875 244.84375 101.542969 244.070312 C 70.527344 243.085938 46.703125 237.28125 46.703125 230.257812 C 46.703125 226.941406 52.019531 223.890625 60.90625 221.496094 C 61.390625 221.875 61.890625 222.242188 62.40625 222.597656 C 79.871094 234.066406 96.421875 238.457031 110.660156 238.457031 C 130.777344 238.457031 146.265625 229.695312 153.15625 219.757812 C 166.570312 222.320312 175.039062 226.074219 175.039062 230.257812 C 175.039062 235.199219 163.234375 239.539062 145.445312 242.019531 C 151.304688 243.136719 155.023438 244.773438 155.023438 246.597656 C 155.023438 249.964844 142.484375 252.695312 127.007812 252.695312 "/>
<path style=" stroke:none;fill-rule:nonzero;fill:rgb(55.288696%,56.079102%,81.568909%);fill-opacity:1;" d="M 32.867188 228.035156 C 26.683594 228.035156 21.664062 226.941406 21.664062 225.597656 C 21.664062 224.25 26.683594 223.160156 32.867188 223.160156 C 39.054688 223.160156 44.070312 224.25 44.070312 225.597656 C 44.070312 226.941406 39.054688 228.035156 32.867188 228.035156 "/>
<path style=" stroke:none;fill-rule:nonzero;fill:rgb(55.288696%,56.079102%,81.568909%);fill-opacity:1;" d="M 193.003906 363.675781 C 179.753906 363.675781 169.003906 361.332031 169.003906 358.449219 C 169.003906 355.566406 179.753906 353.226562 193.003906 353.226562 C 206.261719 353.226562 217.003906 355.566406 217.003906 358.449219 C 217.003906 361.332031 206.261719 363.675781 193.003906 363.675781 "/>
<g clip-path="url(#clip2)" clip-rule="nonzero">
<path style=" stroke:none;fill-rule:nonzero;fill:rgb(55.288696%,56.079102%,81.568909%);fill-opacity:1;" d="M 287.144531 366.925781 C 271.679688 366.925781 259.132812 364.191406 259.132812 360.828125 C 259.132812 359.921875 260.0625 359.070312 261.683594 358.300781 C 230.667969 357.316406 206.84375 351.511719 206.84375 344.488281 C 206.84375 336.773438 235.570312 330.523438 271.007812 330.523438 C 306.453125 330.523438 335.179688 336.773438 335.179688 344.488281 C 335.179688 349.425781 323.371094 353.765625 305.585938 356.246094 C 311.445312 357.363281 315.164062 359 315.164062 360.828125 C 315.164062 364.191406 302.621094 366.925781 287.144531 366.925781 "/>
</g>
<path style=" stroke:none;fill-rule:nonzero;fill:rgb(55.288696%,56.079102%,81.568909%);fill-opacity:1;" d="M 193.003906 342.261719 C 186.820312 342.261719 181.804688 341.171875 181.804688 339.824219 C 181.804688 338.480469 186.820312 337.386719 193.003906 337.386719 C 199.195312 337.386719 204.210938 338.480469 204.210938 339.824219 C 204.210938 341.171875 199.195312 342.261719 193.003906 342.261719 "/>
<path style=" stroke:none;fill-rule:nonzero;fill:rgb(98.039246%,70.588684%,23.919678%);fill-opacity:1;" d="M 47.226562 194.714844 C 47.226562 194.714844 42.714844 118.78125 93.613281 133.5625 C 115.71875 139.984375 109.144531 173.824219 132.242188 181.3125 C 132.242188 181.3125 157.664062 192.417969 157.054688 209.1875 C 156.328125 229.40625 113.210938 255.972656 62.40625 222.597656 C 48.355469 212.984375 47.226562 194.714844 47.226562 194.714844 "/>
<path style=" stroke:none;fill-rule:nonzero;fill:rgb(96.859741%,59.609985%,10.198975%);fill-opacity:1;" d="M 132.335938 231.199219 C 129.511719 227.960938 126.335938 225.066406 122.992188 222.367188 C 116.078125 217.222656 108.855469 212.527344 102.042969 207.25 C 103.382812 208.289062 104.730469 209.324219 106.074219 210.359375 C 100.683594 206.238281 94.804688 202.492188 89.753906 197.910156 C 85.730469 194.980469 82.011719 191.566406 78.746094 187.464844 C 74.082031 181.605469 70.765625 176.195312 68.175781 169.105469 C 66.289062 163.953125 65.382812 158.195312 65.328125 152.730469 C 65.285156 148.71875 65.640625 144.625 66.375 140.621094 C 66.253906 139.132812 66.214844 137.636719 66.320312 136.125 C 42.351562 149.722656 47.226562 194.714844 47.226562 194.714844 C 47.226562 194.714844 48.355469 212.984375 62.40625 222.597656 C 89.15625 240.171875 115.851562 240.296875 133.945312 233.777344 C 133.433594 232.902344 132.902344 232.039062 132.335938 231.199219 "/>
<path style=" stroke:none;fill-rule:nonzero;fill:rgb(14.898682%,42.749023%,40.779114%);fill-opacity:1;" d="M 117.390625 146.058594 C 117.390625 146.058594 114.445312 141.601562 111.394531 143.964844 C 106.75 147.566406 105.261719 162.695312 117.324219 172.664062 C 122.882812 177.253906 137.695312 161.242188 139.644531 155.230469 C 139.644531 155.230469 141.484375 149.222656 135.257812 152.046875 C 128.210938 155.234375 122.535156 160.730469 122.890625 160.511719 C 123.914062 159.882812 122.035156 150.34375 117.390625 146.058594 "/>
<path style=" stroke:none;fill-rule:nonzero;fill:rgb(90.19928%,43.528748%,39.219666%);fill-opacity:1;" d="M 135.671875 151.589844 C 135.671875 151.589844 136.324219 148.660156 139.605469 147.476562 C 142.894531 146.296875 141.03125 148.125 136.035156 153.59375 L 135.671875 151.589844 "/>
<path style=" stroke:none;fill-rule:nonzero;fill:rgb(90.19928%,43.528748%,39.219666%);fill-opacity:1;" d="M 135.671875 151.589844 C 135.671875 151.589844 137.050781 150.441406 139.671875 148.980469 C 142.292969 147.523438 142.519531 147.523438 144.332031 146.769531 C 145.585938 146.25 144.949219 147.382812 144.945312 147.457031 C 144.945312 147.511719 145.070312 147.324219 145.257812 147.648438 C 145.378906 147.847656 145.425781 148.4375 145.351562 148.742188 C 145.300781 148.933594 145.371094 149.730469 145.292969 150.023438 C 144.925781 151.433594 144.8125 153.523438 139.65625 156.152344 C 139.65625 156.152344 134.425781 154.734375 135.671875 151.589844 "/>
<path style=" stroke:none;fill-rule:nonzero;fill:rgb(14.898682%,15.689087%,36.468506%);fill-opacity:1;" d="M 99.667969 179.351562 C 99.667969 179.351562 133.214844 183.140625 148.859375 186.070312 C 148.859375 186.070312 147.6875 193.71875 144 194.582031 C 140.308594 195.445312 100.664062 203.152344 97.101562 197.984375 C 93.535156 192.820312 99.667969 179.351562 99.667969 179.351562 "/>
<path style=" stroke:none;fill-rule:nonzero;fill:rgb(14.898682%,15.689087%,36.468506%);fill-opacity:1;" d="M 140.425781 228.523438 C 140.425781 228.523438 139.59375 228.988281 139.597656 229.273438 C 139.601562 229.554688 139.347656 233.335938 139.597656 233.984375 C 139.847656 234.632812 151.460938 235.347656 151.460938 235.347656 C 151.460938 235.347656 157.289062 234.785156 157.863281 234.007812 C 158.441406 233.222656 158.148438 232.667969 157.796875 232.59375 C 157.445312 232.515625 143.726562 228.035156 143.726562 228.035156 L 140.425781 228.523438 "/>
<path style=" stroke:none;fill-rule:nonzero;fill:rgb(96.469116%,54.899597%,50.979614%);fill-opacity:1;" d="M 139.941406 223.738281 C 139.941406 223.738281 140.125 229.496094 140.171875 229.640625 C 140.472656 230.511719 142.878906 230.5625 143.578125 229.851562 L 144.382812 224.011719 L 139.941406 223.738281 "/>
<path style=" stroke:none;fill-rule:nonzero;fill:rgb(14.898682%,15.689087%,36.468506%);fill-opacity:1;" d="M 137.242188 185.539062 C 137.242188 185.539062 137.433594 190.664062 137.105469 191.90625 C 136.773438 193.144531 138.578125 218.683594 139.242188 227.191406 C 139.242188 227.191406 143.222656 228.449219 144.394531 226.792969 C 146.207031 224.234375 148.839844 186.070312 148.839844 186.070312 L 137.242188 185.539062 "/>
<path style=" stroke:none;fill-rule:nonzero;fill:rgb(18.03894%,19.219971%,57.249451%);fill-opacity:1;" d="M 97.390625 180.820312 C 97.390625 180.820312 132.535156 189.234375 147.71875 194.015625 C 147.71875 194.015625 145.632812 201.460938 141.871094 201.882812 C 138.105469 202.296875 101.320312 204.714844 97.242188 199.941406 C 95.933594 198.414062 94.277344 194.492188 92.976562 185.617188 C 92.398438 181.625 97.390625 180.820312 97.390625 180.820312 "/>
<path style=" stroke:none;fill-rule:nonzero;fill:rgb(14.898682%,15.689087%,36.468506%);fill-opacity:1;" d="M 131.257812 240.640625 C 131.257812 240.640625 130.292969 241.117188 130.28125 241.433594 C 130.269531 241.753906 129.761719 246 130.007812 246.742188 C 130.25 247.484375 143.285156 248.964844 143.285156 248.964844 C 143.285156 248.964844 149.878906 248.671875 150.570312 247.824219 C 151.265625 246.976562 150.96875 246.335938 150.578125 246.234375 C 150.1875 246.125 134.996094 240.28125 134.996094 240.28125 L 131.257812 240.640625 "/>
<path style=" stroke:none;fill-rule:nonzero;fill:rgb(96.469116%,54.899597%,50.979614%);fill-opacity:1;" d="M 132.398438 235.375 C 132.398438 235.375 131.820312 241.851562 131.859375 242.019531 C 132.074219 243.03125 134.761719 243.410156 135.644531 242.707031 L 137.332031 236.277344 L 132.398438 235.375 "/>
<path style=" stroke:none;fill-rule:nonzero;fill:rgb(18.03894%,19.219971%,57.249451%);fill-opacity:1;" d="M 134.929688 192.097656 C 134.929688 192.097656 134.453125 197.796875 133.921875 199.128906 C 133.390625 200.457031 131.96875 228.976562 131.5625 238.488281 C 131.5625 238.488281 135.804688 240.410156 137.324219 238.726562 C 139.671875 236.136719 147.695312 194.230469 147.695312 194.230469 L 134.929688 192.097656 "/>
<path style=" stroke:none;fill-rule:nonzero;fill:rgb(21.179199%,67.059326%,61.178589%);fill-opacity:1;" d="M 108.8125 141.476562 C 108.8125 141.476562 98.933594 140.921875 97.355469 144.964844 C 97.355469 144.964844 93.246094 149.132812 92.007812 161.566406 C 91.117188 170.472656 92.128906 179.335938 93.019531 185.351562 C 93.019531 185.351562 107.59375 188.757812 113.152344 182.453125 C 113.152344 182.453125 123.097656 158.707031 118.652344 148.671875 C 118.652344 148.671875 113.992188 141.457031 108.8125 141.476562 "/>
<path style=" stroke:none;fill-rule:nonzero;fill:rgb(100%,100%,100%);fill-opacity:1;" d="M 103.320312 142.167969 C 103.320312 142.167969 112.402344 147.308594 114.929688 151.933594 C 114.929688 151.933594 113.769531 144.246094 111.214844 142.414062 L 103.320312 142.167969 "/>
<path style=" stroke:none;fill-rule:nonzero;fill:rgb(90.19928%,43.528748%,39.219666%);fill-opacity:1;" d="M 102.632812 133.679688 C 102.632812 133.679688 103.320312 139.523438 103.320312 141.882812 C 103.320312 142.648438 108.792969 144.089844 111.023438 142.675781 C 111.503906 142.371094 111.464844 135.867188 111.464844 135.867188 L 102.632812 133.679688 "/>
<path style=" stroke:none;fill-rule:nonzero;fill:rgb(96.469116%,54.899597%,50.979614%);fill-opacity:1;" d="M 105.980469 117.40625 C 105.980469 117.40625 114.550781 114.597656 119.296875 120.378906 C 119.296875 120.378906 119.597656 129.640625 117.960938 135.484375 C 117.160156 138.355469 116.308594 139.644531 113.398438 139.792969 C 113.398438 139.792969 102.996094 140.121094 102.371094 132.816406 C 101.8125 126.234375 103.335938 118.78125 105.980469 117.40625 "/>
<path style=" stroke:none;fill-rule:nonzero;fill:rgb(18.03894%,19.219971%,57.249451%);fill-opacity:1;" d="M 104.25 130.890625 C 104.25 130.890625 106.09375 122.722656 111.984375 121.609375 C 117.875 120.492188 119.171875 122.550781 119.929688 122.125 C 121.746094 121.089844 120.957031 118.65625 120.957031 118.65625 C 120.957031 118.65625 120.199219 115.816406 115.863281 114.464844 C 114.515625 114.046875 102.449219 112.070312 98.527344 120.585938 C 95.453125 127.269531 101.589844 136.222656 102.507812 137.558594 C 103.433594 138.898438 104.25 130.890625 104.25 130.890625 "/>
<path style=" stroke:none;fill-rule:nonzero;fill:rgb(96.469116%,54.899597%,50.979614%);fill-opacity:1;" d="M 105.886719 128.140625 C 106.003906 130.015625 105.234375 131.585938 104.167969 131.65625 C 103.101562 131.71875 102.140625 130.253906 102.023438 128.378906 C 101.90625 126.503906 102.675781 124.933594 103.738281 124.863281 C 104.496094 124.820312 105.199219 125.542969 105.585938 126.632812 C 105.746094 127.085938 105.851562 127.597656 105.886719 128.140625 "/>
<path style=" stroke:none;fill-rule:nonzero;fill:rgb(96.469116%,54.899597%,50.979614%);fill-opacity:1;" d="M 105.484375 192.328125 C 105.484375 192.328125 108.109375 193.210938 109.386719 196.269531 C 110.660156 199.320312 108.253906 196.816406 102.859375 192.445312 L 105.484375 192.328125 "/>
<path style=" stroke:none;fill-rule:nonzero;fill:rgb(96.469116%,54.899597%,50.979614%);fill-opacity:1;" d="M 105.324219 192.808594 C 105.324219 192.808594 106.476562 194.042969 107.980469 196.441406 C 109.476562 198.839844 109.488281 199.054688 110.285156 200.730469 C 110.835938 201.894531 109.742188 201.367188 109.664062 201.371094 C 109.621094 201.375 109.796875 201.484375 109.503906 201.6875 C 109.320312 201.816406 108.773438 201.910156 108.484375 201.855469 C 108.296875 201.824219 107.65625 201.695312 107.378906 201.648438 C 106.039062 201.402344 103.523438 200.976562 100.789062 196.238281 C 100.789062 196.238281 102.308594 191.855469 105.324219 192.808594 "/>
<path style=" stroke:none;fill-rule:nonzero;fill:rgb(21.179199%,67.059326%,61.178589%);fill-opacity:1;" d="M 103.972656 148.953125 C 103.972656 148.953125 101.320312 140.832031 98.496094 144.011719 C 86.875 157.125 84.410156 187.226562 101.222656 197.136719 C 101.222656 197.136719 103.941406 196.804688 105.1875 193.492188 C 106.441406 190.15625 100.382812 179.011719 100.382812 179.011719 C 103.25 172.195312 105.296875 158.824219 103.972656 148.953125 "/>
<path style=" stroke:none;fill-rule:nonzero;fill:rgb(96.859741%,59.609985%,10.198975%);fill-opacity:1;" d="M 112.839844 190.75 C 112.839844 190.75 112.277344 189.730469 112.839844 189.675781 C 113.402344 189.625 151.113281 189.675781 151.113281 189.675781 C 151.113281 189.675781 150.757812 190.804688 150.347656 190.75 C 149.9375 190.699219 112.839844 190.75 112.839844 190.75 "/>
<path style=" stroke:none;fill-rule:nonzero;fill:rgb(98.039246%,70.588684%,23.919678%);fill-opacity:1;" d="M 138.152344 190.035156 L 112.945312 190.035156 L 105.359375 172.964844 L 132.925781 172.964844 L 138.152344 190.035156 "/>
<path style=" stroke:none;fill-rule:nonzero;fill:rgb(96.859741%,59.609985%,10.198975%);fill-opacity:1;" d="M 106.109375 173.140625 C 108.578125 176.585938 111.039062 178.933594 114.183594 181.410156 L 114 181.273438 C 113.648438 181.003906 113.296875 180.730469 112.945312 180.457031 C 113.296875 180.734375 113.648438 181.003906 114 181.273438 C 114.113281 181.359375 114.222656 181.449219 114.335938 181.53125 C 114.753906 181.863281 115.1875 182.191406 115.628906 182.53125 C 115.199219 182.195312 114.765625 181.867188 114.335938 181.53125 L 114.183594 181.410156 C 119.066406 185.132812 124.082031 188.449219 130.292969 189.667969 C 130.949219 189.796875 131.605469 189.917969 132.253906 190.035156 L 112.945312 190.035156 L 105.359375 172.964844 L 105.988281 172.964844 L 106.109375 173.140625 "/>
<path style=" stroke:none;fill-rule:nonzero;fill:rgb(99.609375%,93.328857%,82.749939%);fill-opacity:1;" d="M 121.285156 182.824219 C 120.960938 182.824219 120.617188 182.675781 120.371094 182.390625 C 119.953125 181.902344 119.96875 181.203125 120.40625 180.832031 C 120.589844 180.675781 120.808594 180.601562 121.042969 180.601562 C 121.371094 180.601562 121.710938 180.75 121.957031 181.039062 C 122.375 181.523438 122.359375 182.21875 121.917969 182.59375 C 121.742188 182.75 121.515625 182.824219 121.285156 182.824219 "/>
<path style=" stroke:none;fill-rule:nonzero;fill:rgb(21.179199%,67.059326%,61.178589%);fill-opacity:1;" d="M 314.089844 258.824219 C 319.640625 247.042969 325.757812 245.300781 332.082031 247.304688 C 355.84375 254.835938 362.953125 286.738281 355.863281 313.105469 C 349.730469 335.9375 313.3125 346.835938 292.992188 345.007812 C 272.667969 343.175781 244.59375 337.109375 247.511719 313.300781 C 249.90625 293.777344 263.371094 293.597656 269.007812 292.71875 C 274.640625 291.84375 297.765625 293.464844 314.089844 258.824219 "/>
<path style=" stroke:none;fill-rule:nonzero;fill:rgb(14.898682%,42.749023%,40.779114%);fill-opacity:1;" d="M 343.585938 253.808594 C 343.191406 253.753906 342.800781 253.683594 342.402344 253.601562 C 342.285156 253.574219 342.164062 253.550781 342.042969 253.527344 C 341.324219 253.492188 340.605469 253.488281 339.886719 253.515625 C 339.253906 253.660156 338.628906 253.832031 338.011719 254.03125 C 337.144531 254.484375 336.308594 254.984375 335.5 255.523438 C 333.867188 256.941406 332.375 258.5 330.992188 260.160156 C 327.671875 264.761719 324.992188 269.792969 322.5625 274.914062 C 319.210938 281.996094 314.878906 288.769531 309.363281 294.390625 C 303.5625 300.296875 296.835938 306.105469 289.214844 309.347656 C 281.363281 312.695312 272.910156 314.441406 264.882812 317.3125 C 256.265625 320.398438 255.511719 326.777344 255.183594 328.628906 C 255.035156 330.0625 254.925781 331.507812 254.847656 332.953125 C 264.085938 340.976562 280.101562 343.847656 292.992188 345.007812 C 313.3125 346.835938 349.730469 335.9375 355.863281 313.105469 C 361.636719 291.621094 357.984375 266.464844 343.585938 253.808594 "/>
<path style=" stroke:none;fill-rule:nonzero;fill:rgb(96.859741%,59.609985%,10.198975%);fill-opacity:1;" d="M 280.308594 245.078125 C 278.628906 247.382812 279.050781 246.753906 267.265625 264.5 C 264.492188 268.667969 270.816406 269.105469 273.757812 269.019531 C 276.703125 268.929688 279.542969 267.148438 280.0625 262.195312 C 280.585938 257.242188 280.308594 245.078125 280.308594 245.078125 "/>
<path style=" stroke:none;fill-rule:nonzero;fill:rgb(96.859741%,59.609985%,10.198975%);fill-opacity:1;" d="M 275.476562 268.867188 C 275.476562 268.867188 259.882812 273.648438 246.5 267.398438 C 246.5 267.398438 246.734375 262.878906 248.785156 262.878906 C 254.707031 262.878906 261.140625 263.144531 268.640625 263.242188 C 275.253906 263.324219 275.476562 268.867188 275.476562 268.867188 "/>
<path style=" stroke:none;fill-rule:nonzero;fill:rgb(18.03894%,19.219971%,57.249451%);fill-opacity:1;" d="M 305.371094 238.578125 C 305.058594 238.316406 304.789062 238.085938 304.550781 237.871094 C 304.472656 237.71875 304.382812 237.574219 304.277344 237.445312 C 302.671875 235.445312 303.835938 231.925781 304.882812 229.230469 C 305.925781 226.539062 305.582031 218.113281 300.964844 216.1875 C 296.351562 214.257812 294.300781 216.679688 294.300781 216.679688 L 295.585938 221.589844 C 295.585938 221.589844 295.441406 224.308594 295.265625 227.273438 C 294.199219 229.179688 293.152344 231.207031 292.609375 232.722656 L 286.394531 233.5 C 286.394531 233.5 282.457031 236.855469 282.621094 237.921875 C 282.78125 238.988281 280.734375 240.296875 278.761719 241.445312 C 276.792969 242.589844 277.855469 244.144531 278.761719 245.949219 C 279.664062 247.757812 279.171875 248.730469 279.171875 248.730469 C 279.171875 248.730469 282.042969 246.277344 282.621094 245.949219 C 283.195312 245.628906 286.394531 246.847656 286.722656 247.339844 C 287.050781 247.828125 289.269531 251.023438 290.25 255.527344 C 291.230469 260.03125 296.328125 266.25 297.472656 267.292969 C 298.621094 268.335938 299.113281 272.3125 299.585938 271.820312 C 300.058594 271.328125 300.921875 270.34375 300.183594 269.027344 C 299.445312 267.707031 298.621094 266.417969 302.890625 263.710938 C 307.15625 261.011719 307.734375 257.164062 306.460938 255.28125 C 305.183594 253.398438 307.734375 250.285156 309.539062 247.664062 C 311.34375 245.046875 307.734375 240.542969 305.371094 238.578125 "/>
<path style=" stroke:none;fill-rule:nonzero;fill:rgb(100%,100%,100%);fill-opacity:1;" d="M 251.207031 334.328125 C 251.207031 334.328125 251.835938 334.832031 251.949219 335.054688 C 252.160156 335.480469 253.570312 338.59375 253.433594 339.1875 C 253.292969 339.78125 242.484375 342.515625 242.484375 342.515625 C 242.484375 342.515625 237.148438 342.226562 236.503906 341.625 C 235.863281 341.023438 236.050781 340.507812 236.367188 340.394531 C 236.679688 340.28125 248.757812 334.589844 248.757812 334.589844 L 251.207031 334.328125 "/>
<path style=" stroke:none;fill-rule:nonzero;fill:rgb(90.19928%,43.528748%,39.219666%);fill-opacity:1;" d="M 257.824219 296.496094 C 257.648438 295.136719 275.476562 283.046875 275.476562 283.046875 L 247.085938 288.457031 C 247.085938 288.457031 246.976562 294.894531 248.417969 331.003906 L 248.410156 331.003906 L 248.347656 336.160156 C 248.902344 336.867188 251.136719 337.128906 251.542969 336.417969 C 251.605469 336.296875 252.566406 331.332031 252.566406 331.332031 C 254.050781 322.160156 258.007812 297.847656 257.824219 296.496094 "/>
<path style=" stroke:none;fill-rule:nonzero;fill:rgb(100%,100%,100%);fill-opacity:1;" d="M 268.324219 338.425781 C 268.324219 338.425781 269.195312 338.800781 269.25 339.042969 C 269.300781 339.285156 270.433594 341.894531 270.339844 342.492188 C 270.242188 343.097656 260.078125 347.007812 260.078125 347.007812 C 260.078125 347.007812 254.859375 347.171875 254.175781 346.613281 C 253.488281 346.054688 253.644531 345.527344 253.949219 345.394531 C 254.257812 345.261719 265.902344 338.839844 265.902344 338.839844 L 268.324219 338.425781 "/>
<path style=" stroke:none;fill-rule:nonzero;fill:rgb(96.469116%,54.899597%,50.979614%);fill-opacity:1;" d="M 261.632812 300.820312 C 261 299.585938 284.820312 283.941406 284.820312 283.941406 L 248.382812 293.195312 C 248.382812 293.195312 250.082031 301.667969 263.824219 335.464844 L 263.8125 335.464844 L 265.523438 340.375 C 266.289062 340.878906 268.503906 340.464844 268.636719 339.671875 C 268.65625 339.539062 267.867188 334.550781 267.867188 334.550781 C 266.128906 325.40625 262.269531 302.050781 261.632812 300.820312 "/>
<path style=" stroke:none;fill-rule:nonzero;fill:rgb(96.469116%,54.899597%,50.979614%);fill-opacity:1;" d="M 258.117188 343.542969 C 258.117188 343.542969 263.761719 341.039062 265.222656 339.515625 L 268.636719 339.671875 C 268.636719 339.671875 268.679688 341.824219 261.148438 343.828125 L 258.117188 343.542969 "/>
<path style=" stroke:none;fill-rule:nonzero;fill:rgb(100%,100%,100%);fill-opacity:1;" d="M 279.660156 281.742188 L 279.070312 281.742188 C 279.070312 281.742188 276.546875 282.234375 253.667969 286.960938 C 253.667969 286.960938 260.164062 288.359375 261.570312 301.726562 C 261.570312 301.726562 287.597656 305.480469 294.617188 301.613281 C 298.988281 299.207031 303.695312 294.855469 300.753906 282.675781 L 279.660156 281.742188 "/>
<path style=" stroke:none;fill-rule:nonzero;fill:rgb(98.039246%,70.588684%,23.919678%);fill-opacity:1;" d="M 301.636719 286.398438 C 301.636719 286.398438 300.839844 283.109375 298.140625 271.484375 C 298.140625 271.484375 302.582031 258.550781 301.636719 250.164062 C 301.234375 246.648438 298.574219 246 298.574219 246 C 298.574219 246 296.605469 244.324219 290.203125 243.804688 C 290.203125 243.804688 286.152344 243.351562 280.308594 245.078125 C 280.308594 245.078125 274.542969 251.609375 273.457031 255.6875 C 272.773438 258.234375 276.023438 265.824219 276.023438 265.824219 C 276.328125 268.5625 279.695312 278.144531 277.804688 282.402344 C 277.066406 284.074219 286.363281 291.089844 301.636719 286.398438 "/>
<path style=" stroke:none;fill-rule:nonzero;fill:rgb(90.19928%,43.528748%,39.219666%);fill-opacity:1;" d="M 294.339844 233.910156 C 294.339844 233.910156 291.582031 239.558594 292.53125 244.050781 C 293.050781 246.535156 287.457031 246.625 284.785156 244.074219 C 284.785156 244.074219 285.925781 235.316406 283.746094 233.75 C 281.566406 232.179688 294.339844 233.910156 294.339844 233.910156 "/>
<path style=" stroke:none;fill-rule:nonzero;fill:rgb(96.469116%,54.899597%,50.979614%);fill-opacity:1;" d="M 256.253906 277.503906 C 256.253906 277.503906 253.429688 277.074219 250.59375 279.105469 C 247.757812 281.132812 251.296875 280.078125 258.527344 278.78125 L 256.253906 277.503906 "/>
<path style=" stroke:none;fill-rule:nonzero;fill:rgb(96.469116%,54.899597%,50.979614%);fill-opacity:1;" d="M 255.578125 277.464844 C 255.578125 277.464844 253.941406 278.265625 251.488281 280.023438 C 249.035156 281.789062 248.933594 281.980469 247.472656 283.28125 C 246.453125 284.183594 247.746094 284.007812 247.816406 284.027344 C 247.863281 284.050781 247.640625 284.097656 247.847656 284.363281 C 247.976562 284.53125 248.480469 284.769531 248.785156 284.800781 C 248.980469 284.824219 249.660156 284.886719 249.960938 284.917969 C 251.375 285.070312 254.027344 285.382812 258.640625 281.839844 C 258.640625 281.839844 258.933594 277.441406 255.578125 277.464844 "/>
<path style=" stroke:none;fill-rule:nonzero;fill:rgb(98.039246%,70.588684%,23.919678%);fill-opacity:1;" d="M 301.425781 251.644531 C 302.632812 247.871094 298.195312 245.75 298.195312 245.75 C 290.789062 249.886719 283.078125 261.203125 275.066406 268.976562 C 271.464844 270.617188 262.710938 274.382812 255.824219 277.148438 C 255.824219 277.148438 253.472656 278.816406 254.078125 280.65625 C 254.6875 282.5 255.859375 282.675781 255.859375 282.675781 C 267.8125 282.347656 295.691406 269.605469 301.425781 251.644531 "/>
<path style=" stroke:none;fill-rule:nonzero;fill:rgb(96.469116%,54.899597%,50.979614%);fill-opacity:1;" d="M 292.851562 219.542969 C 292.851562 219.542969 285.050781 215.585938 280.339844 220.152344 C 280.339844 220.152344 279.304688 227.644531 279.804688 232.054688 C 280.304688 236.464844 280.703125 239.699219 283.980469 239.925781 C 283.980469 239.925781 293.214844 239.632812 294.476562 233.324219 C 295.613281 227.640625 295.015625 221 292.851562 219.542969 "/>
<path style=" stroke:none;fill-rule:nonzero;fill:rgb(18.03894%,19.219971%,57.249451%);fill-opacity:1;" d="M 283.070312 219.5 C 283.070312 219.5 280.074219 220.554688 279.667969 225.710938 C 279.667969 225.710938 275.171875 224.417969 276.585938 221.292969 C 278.003906 218.164062 283.203125 217.199219 283.203125 217.199219 C 283.203125 217.199219 288.273438 216.488281 290.460938 217.167969 C 292.652344 217.847656 283.070312 219.5 283.070312 219.5 "/>
<path style=" stroke:none;fill-rule:nonzero;fill:rgb(90.19928%,43.528748%,39.219666%);fill-opacity:1;" d="M 250.738281 266.894531 C 250.738281 266.894531 250.746094 270.019531 247.539062 271.210938 C 244.59375 272.308594 245.9375 270.402344 249.996094 264.851562 L 250.738281 266.894531 "/>
<path style=" stroke:none;fill-rule:nonzero;fill:rgb(90.19928%,43.528748%,39.219666%);fill-opacity:1;" d="M 250.207031 268.726562 C 250.207031 268.726562 248.742188 269.492188 246.132812 270.253906 C 243.523438 271.019531 243.328125 270.96875 241.582031 271.257812 C 240.375 271.457031 241.195312 270.542969 241.21875 270.46875 C 241.230469 270.425781 241.074219 270.566406 240.988281 270.21875 C 240.933594 270.003906 241.03125 269.4375 241.171875 269.167969 C 241.257812 269 241.574219 268.414062 241.710938 268.152344 C 242.359375 266.917969 243.546875 264.585938 248.628906 263.296875 C 248.628906 263.296875 252.023438 266.0625 250.207031 268.726562 "/>
<path style=" stroke:none;fill-rule:nonzero;fill:rgb(18.03894%,19.219971%,57.249451%);fill-opacity:1;" d="M 281.722656 219.480469 C 281.722656 219.480469 281.675781 228.546875 294.152344 228.609375 C 294.152344 228.609375 295.710938 229.25 296.371094 230.234375 C 296.371094 230.234375 297.839844 224.5625 298.574219 223.523438 C 299.3125 222.480469 298.660156 211.792969 284.417969 218.246094 L 281.722656 219.480469 "/>
<path style=" stroke:none;fill-rule:nonzero;fill:rgb(90.19928%,43.528748%,39.219666%);fill-opacity:1;" d="M 240.53125 338.742188 C 240.53125 338.742188 246.453125 336.265625 248.359375 335.253906 L 251.542969 336.417969 C 251.542969 336.417969 249.375 339.144531 243.304688 339.917969 L 240.53125 338.742188 "/>
<path style=" stroke:none;fill-rule:nonzero;fill:rgb(21.179199%,67.059326%,61.178589%);fill-opacity:1;" d="M 294.5 216.492188 C 294.5 216.492188 295.023438 216.023438 295.585938 215.832031 C 296.140625 215.640625 299.011719 216.839844 299.003906 221.292969 C 299.003906 221.292969 298.035156 217.277344 294.5 216.492188 "/>
<path style=" stroke:none;fill-rule:nonzero;fill:rgb(100%,100%,100%);fill-opacity:1;" d="M 253.550781 339.144531 L 249.765625 342.6875 L 248.382812 342.378906 L 249.480469 338.804688 L 253.550781 339.144531 "/>
<path style=" stroke:none;fill-rule:nonzero;fill:rgb(100%,100%,100%);fill-opacity:1;" d="M 270.347656 342.515625 L 267.574219 346.796875 L 266.152344 346.796875 L 266.304688 343.085938 L 270.347656 342.515625 "/>
<path style=" stroke:none;fill-rule:nonzero;fill:rgb(96.469116%,54.899597%,50.979614%);fill-opacity:1;" d="M 293.527344 230.625 C 293.085938 232.1875 293.445312 233.660156 294.339844 233.910156 C 295.226562 234.160156 296.308594 233.097656 296.75 231.535156 C 297.195312 229.96875 296.832031 228.5 295.945312 228.246094 C 295.050781 227.996094 293.972656 229.058594 293.527344 230.625 "/>
<path style=" stroke:none;fill-rule:nonzero;fill:rgb(18.03894%,19.219971%,57.249451%);fill-opacity:1;" d="M 291.929688 227.398438 C 291.929688 227.398438 293.457031 230.136719 292.441406 234.5 C 292.441406 234.5 295.484375 230.101562 294.347656 227.398438 C 293.210938 224.695312 291.929688 227.398438 291.929688 227.398438 "/>
<path style=" stroke:none;fill-rule:nonzero;fill:rgb(90.19928%,43.528748%,39.219666%);fill-opacity:1;" d="M 280.308594 245.078125 C 280.308594 245.078125 288.761719 242.113281 296.992188 245.179688 C 296.992188 245.179688 291.398438 250.882812 283.777344 249.234375 C 283.777344 249.234375 280.109375 247.605469 280.308594 245.078125 "/>
<path style=" stroke:none;fill-rule:nonzero;fill:rgb(14.898682%,15.689087%,36.468506%);fill-opacity:1;" d="M 238.511719 286.457031 C 238.511719 286.457031 237.9375 285.40625 238.511719 285.351562 C 239.089844 285.304688 277.632812 285.351562 277.632812 285.351562 C 277.632812 285.351562 277.265625 286.503906 276.84375 286.457031 C 276.425781 286.402344 238.511719 286.457031 238.511719 286.457031 "/>
<path style=" stroke:none;fill-rule:nonzero;fill:rgb(18.03894%,19.219971%,57.249451%);fill-opacity:1;" d="M 264.378906 285.722656 L 238.617188 285.722656 L 230.867188 268.269531 L 259.039062 268.269531 L 264.378906 285.722656 "/>
<path style=" stroke:none;fill-rule:nonzero;fill:rgb(14.898682%,15.689087%,36.468506%);fill-opacity:1;" d="M 231.636719 268.457031 C 234.160156 271.976562 236.671875 274.375 239.882812 276.90625 L 239.703125 276.769531 C 239.339844 276.492188 238.980469 276.214844 238.617188 275.9375 C 238.980469 276.214844 239.339844 276.492188 239.703125 276.769531 C 239.816406 276.855469 239.929688 276.941406 240.042969 277.03125 C 240.46875 277.371094 240.914062 277.707031 241.363281 278.050781 C 240.925781 277.710938 240.484375 277.375 240.042969 277.03125 L 239.882812 276.90625 C 244.878906 280.714844 250.003906 284.101562 256.347656 285.34375 C 257.019531 285.476562 257.6875 285.601562 258.355469 285.722656 L 238.617188 285.722656 L 230.867188 268.269531 L 231.515625 268.269531 L 231.636719 268.457031 "/>
<path style=" stroke:none;fill-rule:nonzero;fill:rgb(79.60968%,75.689697%,90.19928%);fill-opacity:1;" d="M 247.144531 278.351562 C 246.808594 278.351562 246.460938 278.199219 246.207031 277.910156 C 245.785156 277.410156 245.796875 276.695312 246.246094 276.316406 C 246.429688 276.152344 246.660156 276.078125 246.898438 276.078125 C 247.230469 276.078125 247.582031 276.234375 247.832031 276.523438 C 248.257812 277.023438 248.242188 277.734375 247.792969 278.117188 C 247.609375 278.273438 247.378906 278.351562 247.144531 278.351562 "/>
<path style=" stroke:none;fill-rule:nonzero;fill:rgb(100%,100%,100%);fill-opacity:1;" d="M 294.492188 89.40625 C 294.492188 89.40625 294.964844 46.890625 287.421875 41.519531 L 287.570312 41.183594 C 287.570312 41.183594 288.960938 40.4375 290.390625 42.863281 C 291.816406 45.285156 297.4375 86.859375 294.519531 90.558594 L 294.492188 89.40625 "/>
<path style=" stroke:none;fill-rule:nonzero;fill:rgb(18.03894%,19.219971%,57.249451%);fill-opacity:1;" d="M 297.96875 25.199219 C 299.074219 22.355469 298.703125 13.453125 293.828125 11.417969 C 288.953125 9.382812 286.792969 11.9375 286.792969 11.9375 L 288.144531 17.125 C 288.144531 17.125 287.988281 19.996094 287.808594 23.132812 C 286.195312 26.003906 284.625 29.15625 284.59375 30.589844 C 284.519531 33.558594 284.527344 35.070312 284.527344 35.070312 C 284.527344 35.070312 286.089844 33.921875 287.757812 31.828125 C 288.6875 34.296875 291.09375 36.289062 291.511719 37.863281 C 292.046875 39.882812 290.46875 41.820312 290.46875 41.820312 C 291.757812 42.421875 293.96875 41.9375 293.96875 41.9375 C 297.257812 41.355469 299.027344 35.980469 297.328125 33.871094 C 295.628906 31.761719 296.863281 28.042969 297.96875 25.199219 "/>
<path style=" stroke:none;fill-rule:nonzero;fill:rgb(18.818665%,53.329468%,50.19989%);fill-opacity:1;" d="M 272.007812 41.9375 C 270.234375 44.375 270.679688 43.710938 258.230469 62.453125 C 255.300781 66.859375 255.78125 68.007812 258.890625 67.914062 C 262 67.820312 271.199219 65.25 271.75 60.019531 C 272.300781 54.789062 272.007812 41.9375 272.007812 41.9375 "/>
<path style=" stroke:none;fill-rule:nonzero;fill:rgb(14.898682%,15.689087%,36.468506%);fill-opacity:1;" d="M 275.210938 164.910156 C 275.210938 164.910156 275.898438 165.382812 275.902344 165.617188 C 275.910156 165.851562 276.808594 169.105469 276.621094 169.644531 C 276.441406 170.179688 266.960938 171.128906 266.960938 171.128906 C 266.960938 171.128906 262.175781 170.847656 261.683594 170.226562 C 261.191406 169.605469 261.40625 169.144531 261.695312 169.070312 C 261.980469 168.996094 273.0625 164.910156 273.0625 164.910156 L 275.210938 164.910156 "/>
<path style=" stroke:none;fill-rule:nonzero;fill:rgb(90.19928%,43.528748%,39.219666%);fill-opacity:1;" d="M 275.324219 128.34375 C 274.984375 127.109375 272.691406 118.675781 272.691406 118.675781 L 264.347656 127.167969 C 264.347656 127.167969 265.734375 128.21875 271.847656 161.476562 L 271.835938 161.476562 L 272.480469 166.261719 C 273.054688 166.84375 275.019531 166.808594 275.269531 166.097656 C 275.3125 165.980469 275.472656 161.265625 275.472656 161.265625 C 275.519531 152.582031 275.664062 129.578125 275.324219 128.34375 "/>
<path style=" stroke:none;fill-rule:nonzero;fill:rgb(14.898682%,15.689087%,36.468506%);fill-opacity:1;" d="M 289.058594 170.085938 C 289.058594 170.085938 289.757812 170.429688 289.765625 170.660156 C 289.773438 170.894531 290.132812 173.976562 289.949219 174.515625 C 289.773438 175.054688 280.300781 176.097656 280.300781 176.097656 C 280.300781 176.097656 275.515625 175.867188 275.011719 175.246094 C 274.511719 174.632812 274.730469 174.167969 275.011719 174.09375 C 275.300781 174.015625 286.339844 169.8125 286.339844 169.8125 L 289.058594 170.085938 "/>
<path style=" stroke:none;fill-rule:nonzero;fill:rgb(96.469116%,54.899597%,50.979614%);fill-opacity:1;" d="M 288.484375 116.140625 C 292.25 98.851562 291.304688 91.1875 288.992188 82.082031 C 286.996094 74.210938 283.113281 80.035156 278.710938 80.082031 C 278.59375 81.816406 265.925781 80.472656 265.808594 82.246094 C 265.375 88.902344 269.242188 101.738281 273.351562 112.402344 C 279.613281 128.070312 285.480469 162.921875 286.082031 170.082031 C 286.082031 170.082031 280.871094 172.089844 280.3125 172.371094 L 282.359375 173.265625 C 287.589844 172.847656 289.234375 171.730469 289.050781 170.539062 C 289.039062 170.484375 289.023438 168.484375 288.992188 167.070312 C 289.410156 150.863281 287.125 119.410156 288.484375 116.140625 "/>
<path style=" stroke:none;fill-rule:nonzero;fill:rgb(18.03894%,19.219971%,57.249451%);fill-opacity:1;" d="M 265.402344 82.917969 L 264.367188 83.839844 C 264.367188 83.839844 260.019531 103.085938 264.625 128.882812 C 264.625 128.882812 279.105469 132.972656 289.253906 128.75 C 289.253906 128.75 291.085938 107.609375 291.820312 104.164062 C 292.554688 100.714844 294.648438 92.054688 287.566406 82.480469 L 265.402344 82.917969 "/>
<path style=" stroke:none;fill-rule:nonzero;fill:rgb(100%,100%,100%);fill-opacity:1;" d="M 279.402344 86.824219 C 279.402344 86.824219 288.941406 88.511719 293.664062 84.15625 C 293.664062 84.15625 299.285156 98.378906 297.589844 102.582031 C 296.867188 104.371094 282.453125 107.011719 278.339844 103.992188 C 278.339844 103.992188 276.101562 102.746094 279.402344 86.824219 "/>
<path style=" stroke:none;fill-rule:nonzero;fill:rgb(96.469116%,54.899597%,50.979614%);fill-opacity:1;" d="M 285.371094 27.589844 C 284.8125 29.566406 285.265625 31.425781 286.390625 31.742188 C 287.519531 32.058594 288.882812 30.710938 289.441406 28.738281 C 290.003906 26.761719 289.542969 24.902344 288.421875 24.589844 C 287.296875 24.265625 285.933594 25.613281 285.371094 27.589844 "/>
<path style=" stroke:none;fill-rule:nonzero;fill:rgb(21.179199%,67.059326%,61.178589%);fill-opacity:1;" d="M 289.78125 83.972656 C 289.78125 83.972656 285.832031 73.042969 285.695312 67.125 L 291.304688 45.964844 L 291.304688 42.914062 C 291.304688 42.914062 289.21875 41.144531 282.460938 40.59375 C 282.460938 40.59375 278.183594 40.113281 272.007812 41.9375 C 272.007812 41.9375 267.1875 46.878906 266.039062 51.195312 C 265.324219 53.882812 266.613281 62.300781 266.328125 64.285156 C 265.933594 67.027344 264.726562 81.945312 264.367188 83.839844 C 264 85.734375 273.648438 88.929688 289.78125 83.972656 "/>
<path style=" stroke:none;fill-rule:nonzero;fill:rgb(90.19928%,43.528748%,39.219666%);fill-opacity:1;" d="M 285.695312 29.980469 C 285.695312 29.980469 283.839844 37.164062 283.582031 41.289062 C 283.582031 41.289062 280.3125 44.195312 277.496094 41.5 C 277.496094 41.5 276.40625 30.710938 274.105469 29.058594 C 271.804688 27.40625 285.695312 29.980469 285.695312 29.980469 "/>
<path style=" stroke:none;fill-rule:nonzero;fill:rgb(96.469116%,54.899597%,50.979614%);fill-opacity:1;" d="M 284.800781 94.15625 C 284.800781 94.15625 282.441406 95.15625 281.441406 98.089844 C 280.4375 101.023438 282.507812 98.523438 287.210938 94.089844 L 284.800781 94.15625 "/>
<path style=" stroke:none;fill-rule:nonzero;fill:rgb(96.469116%,54.899597%,50.979614%);fill-opacity:1;" d="M 284.269531 94.441406 C 284.269531 94.441406 283.484375 95.847656 282.625 98.390625 C 281.761719 100.9375 281.792969 101.132812 281.414062 102.847656 C 281.152344 104.039062 282.023438 103.296875 282.09375 103.28125 C 282.136719 103.269531 282 103.414062 282.296875 103.527344 C 282.488281 103.597656 282.996094 103.546875 283.246094 103.429688 C 283.402344 103.355469 283.949219 103.082031 284.191406 102.964844 C 285.335938 102.417969 287.492188 101.417969 288.992188 96.445312 C 288.992188 96.445312 286.769531 92.839844 284.269531 94.441406 "/>
<path style=" stroke:none;fill-rule:nonzero;fill:rgb(21.179199%,67.059326%,61.178589%);fill-opacity:1;" d="M 292.300781 43.597656 C 290.292969 40.324219 288.253906 49.039062 288.253906 49.039062 C 287.210938 59.578125 287.210938 64.742188 288.992188 74.25 C 287.152344 88.921875 283.125 94.511719 283.125 94.511719 L 285.285156 96.300781 L 285.398438 96.398438 C 286.140625 96.792969 289.789062 96.96875 289.789062 96.96875 C 297.113281 88.023438 301.871094 59.164062 292.300781 43.597656 "/>
<path style=" stroke:none;fill-rule:nonzero;fill:rgb(96.469116%,54.899597%,50.979614%);fill-opacity:1;" d="M 285.253906 14.957031 C 285.253906 14.957031 277.015625 10.78125 272.042969 15.609375 C 272.042969 15.609375 270.941406 23.523438 271.476562 28.179688 C 272.003906 32.84375 272.425781 36.253906 275.882812 36.496094 C 275.882812 36.496094 285.640625 36.1875 286.976562 29.519531 C 288.175781 23.523438 287.546875 16.5 285.253906 14.957031 "/>
<path style=" stroke:none;fill-rule:nonzero;fill:rgb(90.19928%,43.528748%,39.219666%);fill-opacity:1;" d="M 238.878906 61.414062 C 238.878906 61.414062 237.871094 58.757812 234.914062 57.625 C 231.953125 56.492188 234.476562 58.832031 238.949219 64.140625 L 238.878906 61.414062 "/>
<path style=" stroke:none;fill-rule:nonzero;fill:rgb(90.19928%,43.528748%,39.219666%);fill-opacity:1;" d="M 237.773438 59.941406 C 237.773438 59.941406 236.246094 59.273438 233.5625 58.683594 C 230.886719 58.09375 230.691406 58.164062 228.917969 57.992188 C 227.6875 57.875 228.578125 58.738281 228.601562 58.8125 C 228.617188 58.855469 228.453125 58.726562 228.386719 59.078125 C 228.351562 59.300781 228.484375 59.863281 228.644531 60.125 C 228.746094 60.289062 229.105469 60.859375 229.261719 61.109375 C 230 62.3125 231.359375 64.574219 236.5625 65.511719 C 236.5625 65.511719 239.792969 62.496094 237.773438 59.941406 "/>
<path style=" stroke:none;fill-rule:nonzero;fill:rgb(18.03894%,19.219971%,57.249451%);fill-opacity:1;" d="M 280.160156 12.144531 C 277.765625 12.105469 275.0625 12.488281 275.0625 12.488281 C 275.0625 12.488281 269.570312 13.507812 268.074219 16.808594 C 266.578125 20.113281 271.332031 21.476562 271.332031 21.476562 C 271.574219 18.425781 272.671875 16.738281 273.59375 15.839844 C 273.980469 18.25 276 24.488281 286.628906 24.539062 C 286.628906 24.539062 288.277344 25.21875 288.972656 26.253906 C 288.972656 26.253906 290.527344 20.265625 291.304688 19.164062 C 292.007812 18.164062 291.503906 8.777344 280.160156 12.144531 "/>
<path style=" stroke:none;fill-rule:nonzero;fill:rgb(18.818665%,53.329468%,50.19989%);fill-opacity:1;" d="M 264.183594 66.753906 C 264.183594 66.753906 250.007812 72.574219 235.871094 65.964844 C 235.871094 65.964844 235.519531 61.492188 237.554688 60.742188 C 241.039062 59.46875 239.34375 64.078125 256.378906 60.964844 C 263.25 59.703125 264.183594 66.753906 264.183594 66.753906 "/>
<path style=" stroke:none;fill-rule:nonzero;fill:rgb(90.19928%,43.528748%,39.219666%);fill-opacity:1;" d="M 265.582031 168.015625 C 265.582031 168.015625 270.855469 166.59375 272.367188 165.421875 L 275.269531 166.097656 C 275.269531 166.097656 274.945312 168.089844 268.136719 168.757812 L 265.582031 168.015625 "/>
<path style=" stroke:none;fill-rule:nonzero;fill:rgb(21.179199%,67.059326%,61.178589%);fill-opacity:1;" d="M 275.429688 39.847656 C 275.429688 39.847656 274.621094 37.265625 276.886719 37.125 C 276.886719 37.125 276.914062 37.300781 277.035156 38.027344 C 277.035156 38.027344 280.917969 39.28125 284.070312 37.484375 L 284.230469 36.589844 C 284.230469 36.589844 285.695312 36.496094 285.867188 38.183594 C 285.953125 39.042969 285.9375 40.546875 286.347656 41.121094 C 286.347656 41.121094 282.234375 44.699219 276.597656 42.359375 C 276.597656 42.359375 275.320312 41.488281 275.273438 41.328125 C 275.226562 41.167969 275.546875 40.925781 275.429688 39.847656 "/>
<path style=" stroke:none;fill-rule:nonzero;fill:rgb(21.179199%,67.059326%,61.178589%);fill-opacity:1;" d="M 286.996094 11.734375 C 286.996094 11.734375 287.554688 11.25 288.144531 11.042969 C 288.734375 10.839844 291.765625 12.105469 291.761719 16.808594 C 291.761719 16.808594 290.726562 12.570312 286.996094 11.734375 "/>
<path style=" stroke:none;fill-rule:nonzero;fill:rgb(100%,100%,100%);fill-opacity:1;" d="M 289.351562 41.9375 C 289.351562 41.9375 289.644531 41.195312 287.75 41.105469 C 285.859375 41.023438 281.367188 70.726562 279.402344 86.824219 L 280.808594 87.445312 C 280.808594 87.445312 284.480469 49.171875 289.351562 41.9375 "/>
<g clip-path="url(#clip3)" clip-rule="nonzero">
<g clip-path="url(#clip4)" clip-rule="nonzero">
<path style=" stroke:none;fill-rule:nonzero;fill:url(#linear0);" d="M 309.496094 204.105469 L 309.496094 229.851562 L 335.28125 229.851562 L 335.28125 204.105469 Z M 309.496094 204.105469 "/>
</g>
</g>
<g clip-path="url(#clip5)" clip-rule="nonzero">
<g clip-path="url(#clip6)" clip-rule="nonzero">
<path style=" stroke:none;fill-rule:nonzero;fill:url(#linear1);" d="M 317.5625 212.40625 L 317.5625 237.855469 L 343.234375 237.855469 L 343.234375 212.40625 Z M 317.5625 212.40625 "/>
</g>
</g>
<g clip-path="url(#clip7)" clip-rule="nonzero">
<path style=" stroke:none;fill-rule:nonzero;fill:rgb(94.898987%,94.898987%,94.898987%);fill-opacity:1;" d="M 202.53125 155.589844 C 202.53125 162.269531 199.378906 168.210938 194.476562 172.011719 C 190.964844 174.738281 186.550781 176.363281 181.757812 176.363281 C 176.964844 176.363281 172.550781 174.738281 169.039062 172.011719 C 164.136719 168.210938 160.984375 162.269531 160.984375 155.589844 C 160.984375 144.117188 170.285156 134.816406 181.757812 134.816406 C 193.230469 134.816406 202.53125 144.117188 202.53125 155.589844 Z M 202.53125 155.589844 "/>
</g>
<g clip-path="url(#clip8)" clip-rule="nonzero">
<path style=" stroke:none;fill-rule:nonzero;fill:rgb(0%,41.958618%,75.289917%);fill-opacity:1;" d="M 196.851562 144.511719 L 194.476562 172.011719 C 190.964844 174.738281 186.550781 176.363281 181.757812 176.363281 C 176.964844 176.363281 172.550781 174.738281 169.039062 172.011719 L 166.667969 144.511719 Z M 196.851562 144.511719 "/>
</g>
<path style=" stroke:none;fill-rule:nonzero;fill:rgb(0%,58.81958%,86.268616%);fill-opacity:1;" d="M 181.757812 147.097656 L 181.757812 175.816406 L 191.679688 173.015625 L 193.890625 147.097656 Z M 181.757812 147.097656 "/>
<path style=" stroke:none;fill-rule:nonzero;fill:rgb(100%,100%,100%);fill-opacity:1;" d="M 190.523438 158.332031 L 183.367188 158.332031 L 190.84375 154.523438 L 191.167969 150.699219 L 172.347656 150.699219 L 172.675781 154.601562 L 180.230469 154.601562 L 172.980469 158.226562 L 173.320312 162.21875 L 186.25 162.21875 L 185.828125 166.980469 L 181.757812 168.082031 L 177.519531 166.894531 L 177.414062 163.925781 L 173.464844 163.925781 L 173.957031 169.777344 L 181.757812 171.980469 L 189.558594 169.777344 Z M 190.523438 158.332031 "/>
<path style=" stroke:none;fill-rule:nonzero;fill:rgb(13.328552%,12.939453%,13.729858%);fill-opacity:1;" d="M 174.402344 140.269531 L 174.402344 137.558594 L 178.300781 137.558594 L 178.300781 136.089844 L 172.988281 136.089844 L 172.988281 141.742188 L 178.300781 141.742188 L 178.300781 140.269531 Z M 174.402344 140.269531 "/>
<path style=" stroke:none;fill-rule:nonzero;fill:rgb(13.328552%,12.939453%,13.729858%);fill-opacity:1;" d="M 180.585938 138.300781 L 180.585938 137.621094 L 184.464844 137.621094 L 184.464844 136.089844 L 179.152344 136.089844 L 179.152344 139.59375 L 182.957031 139.59375 L 182.957031 140.269531 L 179.152344 140.269531 L 179.152344 141.742188 L 184.464844 141.742188 L 184.464844 138.300781 Z M 180.585938 138.300781 "/>
<path style=" stroke:none;fill-rule:nonzero;fill:rgb(13.328552%,12.939453%,13.729858%);fill-opacity:1;" d="M 186.648438 138.300781 L 186.648438 137.621094 L 190.527344 137.621094 L 190.527344 136.089844 L 185.210938 136.089844 L 185.210938 139.59375 L 189.019531 139.59375 L 189.019531 140.269531 L 185.210938 140.269531 L 185.210938 141.742188 L 190.527344 141.742188 L 190.527344 138.300781 Z M 186.648438 138.300781 "/>
<g clip-path="url(#clip9)" clip-rule="nonzero">
<path style=" stroke:none;fill-rule:nonzero;fill:rgb(89.408875%,30.198669%,14.898682%);fill-opacity:1;" d="M 181.644531 87.644531 L 178.632812 121.332031 L 165.09375 125.082031 L 151.589844 121.339844 L 148.582031 87.644531 L 181.648438 87.644531 Z M 181.644531 87.644531 "/>
</g>
<path style=" stroke:none;fill-rule:nonzero;fill:rgb(94.509888%,39.608765%,16.079712%);fill-opacity:1;" d="M 165.113281 122.214844 L 176.054688 119.1875 L 178.628906 90.398438 L 165.113281 90.398438 Z M 165.113281 122.214844 "/>
<path style=" stroke:none;fill-rule:nonzero;fill:rgb(92.158508%,92.158508%,92.158508%);fill-opacity:1;" d="M 159.257812 98.664062 L 165.113281 98.664062 L 165.113281 94.53125 L 154.734375 94.53125 L 154.835938 95.640625 L 155.851562 107.027344 L 165.113281 107.027344 L 165.113281 102.898438 L 159.636719 102.898438 Z M 159.257812 98.664062 "/>
<path style=" stroke:none;fill-rule:nonzero;fill:rgb(92.158508%,92.158508%,92.158508%);fill-opacity:1;" d="M 160.191406 109.09375 L 156.035156 109.09375 L 156.617188 115.582031 L 165.09375 117.933594 L 165.113281 117.929688 L 165.113281 113.628906 L 165.097656 113.632812 L 160.488281 112.390625 Z M 160.191406 109.09375 "/>
<g clip-path="url(#clip10)" clip-rule="nonzero">
<path style=" stroke:none;fill-rule:nonzero;fill:rgb(0%,0%,0%);fill-opacity:1;" d="M 151.660156 78.488281 L 153.761719 78.488281 L 153.761719 80.5625 L 155.6875 80.5625 L 155.6875 78.488281 L 157.789062 78.488281 L 157.789062 84.769531 L 155.6875 84.769531 L 155.6875 82.667969 L 153.761719 82.667969 L 153.761719 84.769531 L 151.660156 84.769531 Z M 151.660156 78.488281 "/>
</g>
<g clip-path="url(#clip11)" clip-rule="nonzero">
<path style=" stroke:none;fill-rule:nonzero;fill:rgb(0%,0%,0%);fill-opacity:1;" d="M 160.558594 80.570312 L 158.703125 80.570312 L 158.703125 78.488281 L 164.511719 78.488281 L 164.511719 80.570312 L 162.660156 80.570312 L 162.660156 84.769531 L 160.558594 84.769531 Z M 160.558594 80.570312 "/>
</g>
<g clip-path="url(#clip12)" clip-rule="nonzero">
<path style=" stroke:none;fill-rule:nonzero;fill:rgb(0%,0%,0%);fill-opacity:1;" d="M 165.433594 78.488281 L 167.628906 78.488281 L 168.976562 80.695312 L 170.324219 78.488281 L 172.519531 78.488281 L 172.519531 84.769531 L 170.425781 84.769531 L 170.425781 81.65625 L 168.976562 83.890625 L 168.941406 83.890625 L 167.492188 81.65625 L 167.492188 84.769531 L 165.433594 84.769531 Z M 165.433594 78.488281 "/>
</g>
<g clip-path="url(#clip13)" clip-rule="nonzero">
<path style=" stroke:none;fill-rule:nonzero;fill:rgb(0%,0%,0%);fill-opacity:1;" d="M 173.566406 78.488281 L 175.671875 78.488281 L 175.671875 82.695312 L 178.628906 82.695312 L 178.628906 84.769531 L 173.566406 84.769531 Z M 173.566406 78.488281 "/>
</g>
<path style=" stroke:none;fill-rule:nonzero;fill:rgb(100%,100%,100%);fill-opacity:1;" d="M 165.101562 107.027344 L 170.199219 107.027344 L 169.71875 112.386719 L 165.101562 113.632812 L 165.101562 117.929688 L 173.585938 115.582031 L 173.648438 114.886719 L 174.621094 104.003906 L 174.722656 102.898438 L 165.101562 102.898438 Z M 165.101562 107.027344 "/>
<path style=" stroke:none;fill-rule:nonzero;fill:rgb(100%,100%,100%);fill-opacity:1;" d="M 165.101562 98.652344 L 165.101562 98.664062 L 175.097656 98.664062 L 175.179688 97.734375 L 175.371094 95.640625 L 175.46875 94.53125 L 165.101562 94.53125 Z M 165.101562 98.652344 "/>
<g clip-path="url(#clip14)" clip-rule="nonzero">
<path style=" stroke:none;fill-rule:nonzero;fill:rgb(40.388489%,22.749329%,71.759033%);fill-opacity:1;" d="M 246.253906 50.703125 C 246.253906 53.519531 243.972656 55.800781 241.15625 55.800781 L 214.648438 55.800781 C 211.835938 55.800781 209.550781 53.519531 209.550781 50.703125 L 209.550781 24.195312 C 209.550781 21.378906 211.835938 19.097656 214.648438 19.097656 L 241.15625 19.097656 C 243.972656 19.097656 246.253906 21.378906 246.253906 24.195312 Z M 246.253906 50.703125 "/>
</g>
<path style=" stroke:none;fill-rule:nonzero;fill:rgb(100%,100%,100%);fill-opacity:1;" d="M 237.109375 39.082031 C 236.449219 38.164062 235.488281 37.53125 234.257812 37.195312 C 234.257812 37.195312 235.296875 36.820312 236.234375 35.410156 C 236.792969 34.515625 237.078125 33.433594 237.078125 32.167969 C 237.078125 29.976562 236.285156 28.296875 234.695312 27.144531 C 233.105469 25.992188 231.308594 25.214844 228.261719 25.214844 L 218.726562 25.214844 L 218.726562 49.683594 L 229.363281 49.683594 C 232.246094 49.664062 234.417969 49.042969 235.898438 47.851562 C 237.367188 46.636719 238.097656 44.84375 238.097656 42.445312 C 238.097656 41.121094 237.773438 40 237.109375 39.082031 Z M 224.84375 29.292969 C 224.84375 29.292969 229.097656 29.292969 229.179688 29.292969 C 230.726562 29.292969 231.980469 30.546875 231.980469 32.097656 C 231.980469 33.648438 230.726562 34.902344 229.179688 34.902344 C 229.097656 34.902344 224.84375 34.902344 224.84375 34.902344 Z M 229.941406 45.605469 L 224.84375 45.605469 L 224.84375 39.488281 L 229.941406 39.488281 C 231.636719 39.488281 233 40.855469 233 42.546875 C 233 44.242188 231.636719 45.605469 229.941406 45.605469 Z M 229.941406 45.605469 "/>
<g clip-path="url(#clip15)" clip-rule="nonzero">
<path style=" stroke:none;fill-rule:nonzero;fill:rgb(0%,38.038635%,54.119873%);fill-opacity:1;" d="M 161.230469 321.542969 L 163.476562 321.542969 L 163.476562 312.4375 L 166.953125 320.378906 C 167.363281 321.335938 167.925781 321.679688 169.023438 321.679688 C 170.125 321.679688 170.664062 321.339844 171.078125 320.378906 L 174.554688 312.4375 L 174.554688 321.546875 L 176.796875 321.546875 L 176.796875 312.453125 C 176.796875 311.566406 176.453125 311.136719 175.742188 310.914062 C 174.035156 310.367188 172.890625 310.839844 172.371094 312.023438 L 168.960938 319.859375 L 165.65625 312.019531 C 165.160156 310.835938 163.996094 310.363281 162.289062 310.910156 C 161.574219 311.132812 161.230469 311.5625 161.230469 312.449219 Z M 178.664062 314.128906 L 180.910156 314.128906 L 180.910156 319.148438 C 180.890625 319.417969 180.996094 320.058594 182.226562 320.078125 C 182.851562 320.089844 187.070312 320.078125 187.109375 320.078125 L 187.109375 314.105469 L 189.359375 314.105469 C 189.367188 314.105469 189.355469 322.25 189.355469 322.285156 C 189.367188 324.296875 186.929688 324.730469 185.804688 324.765625 L 178.714844 324.765625 L 178.714844 323.214844 L 185.816406 323.214844 C 187.261719 323.054688 187.089844 322.320312 187.089844 322.070312 L 187.089844 321.464844 L 182.320312 321.464844 C 180.097656 321.445312 178.683594 320.449219 178.667969 319.304688 C 178.664062 319.203125 178.714844 314.179688 178.664062 314.128906 Z M 178.664062 314.128906 "/>
</g>
<path style=" stroke:none;fill-rule:nonzero;fill:rgb(89.408875%,55.688477%,0%);fill-opacity:1;" d="M 191.089844 321.542969 L 197.542969 321.542969 C 198.300781 321.542969 199.035156 321.378906 199.617188 321.097656 C 200.589844 320.640625 201.066406 320.019531 201.066406 319.207031 L 201.066406 317.519531 C 201.066406 316.855469 200.523438 316.234375 199.46875 315.820312 C 198.90625 315.597656 198.214844 315.480469 197.546875 315.480469 L 194.824219 315.480469 C 193.917969 315.480469 193.488281 315.199219 193.378906 314.578125 C 193.355469 314.503906 193.355469 314.441406 193.355469 314.371094 L 193.355469 313.320312 C 193.355469 313.261719 193.355469 313.203125 193.378906 313.128906 C 193.488281 312.65625 193.722656 312.523438 194.523438 312.445312 C 194.585938 312.445312 194.675781 312.429688 194.738281 312.429688 L 201.152344 312.429688 L 201.152344 310.894531 L 194.847656 310.894531 C 193.941406 310.894531 193.464844 310.953125 193.035156 311.085938 C 191.691406 311.515625 191.109375 312.199219 191.109375 313.378906 L 191.109375 314.726562 C 191.109375 315.761719 192.253906 316.648438 194.175781 316.855469 C 194.390625 316.871094 194.609375 316.882812 194.824219 316.882812 L 197.15625 316.882812 C 197.242188 316.882812 197.328125 316.882812 197.394531 316.898438 C 198.105469 316.957031 198.40625 317.089844 198.625 317.359375 C 198.757812 317.496094 198.796875 317.625 198.796875 317.769531 L 198.796875 319.113281 C 198.796875 319.277344 198.6875 319.484375 198.472656 319.660156 C 198.277344 319.839844 197.953125 319.957031 197.523438 319.984375 C 197.4375 319.984375 197.371094 320 197.285156 320 L 191.089844 320 Z M 215.074219 318.867188 C 215.074219 320.449219 216.21875 321.335938 218.527344 321.511719 C 218.742188 321.53125 218.957031 321.539062 219.175781 321.542969 L 225.027344 321.542969 L 225.027344 320.003906 L 219.132812 320.003906 C 217.816406 320.003906 217.316406 319.664062 217.316406 318.851562 L 217.316406 310.894531 L 215.074219 310.894531 Z M 202.496094 318.945312 L 202.496094 313.464844 C 202.496094 312.070312 203.449219 311.226562 205.332031 310.960938 C 205.53125 310.929688 205.734375 310.914062 205.9375 310.914062 L 210.199219 310.914062 C 210.410156 310.914062 210.621094 310.929688 210.828125 310.960938 C 212.710938 311.226562 213.660156 312.070312 213.660156 313.464844 L 213.660156 318.945312 C 213.660156 320.074219 213.257812 320.679688 212.324219 321.074219 L 214.539062 323.125 L 211.929688 323.125 L 210.140625 321.464844 L 208.339844 321.582031 L 205.9375 321.582031 C 205.527344 321.582031 205.09375 321.523438 204.617188 321.390625 C 203.1875 320.992188 202.496094 320.21875 202.496094 318.945312 Z M 204.921875 318.808594 C 204.921875 318.882812 204.941406 318.957031 204.964844 319.046875 C 205.097656 319.683594 205.679688 320.039062 206.5625 320.039062 L 208.601562 320.039062 L 206.726562 318.300781 L 209.335938 318.300781 L 210.964844 319.816406 C 211.269531 319.652344 211.464844 319.398438 211.53125 319.078125 C 211.554688 319.003906 211.554688 318.929688 211.554688 318.855469 L 211.554688 313.597656 C 211.554688 313.539062 211.554688 313.460938 211.53125 313.390625 C 211.398438 312.796875 210.816406 312.457031 209.953125 312.457031 L 206.566406 312.457031 C 205.570312 312.457031 204.925781 312.902344 204.925781 313.597656 L 204.925781 318.8125 Z M 204.921875 318.808594 "/>
<g clip-path="url(#clip16)" clip-rule="nonzero">
<path style=" stroke:none;fill-rule:nonzero;fill:rgb(0%,38.038635%,54.119873%);fill-opacity:1;" d="M 227 308.34375 C 225.621094 308.308594 224.566406 308.4375 223.664062 308.828125 C 223.410156 308.941406 223 308.941406 222.957031 309.273438 C 223.097656 309.425781 223.121094 309.648438 223.234375 309.835938 C 223.449219 310.195312 223.8125 310.675781 224.136719 310.925781 C 224.488281 311.199219 224.855469 311.492188 225.234375 311.730469 C 225.910156 312.15625 226.664062 312.398438 227.316406 312.820312 C 227.699219 313.070312 228.078125 313.382812 228.453125 313.667969 C 228.636719 313.804688 228.761719 314.023438 229.003906 314.109375 L 229.003906 314.070312 C 228.875 313.90625 228.84375 313.675781 228.726562 313.503906 L 228.21875 312.980469 C 227.71875 312.296875 227.085938 311.703125 226.410156 311.207031 C 225.875 310.8125 224.671875 310.277344 224.449219 309.636719 L 224.410156 309.59375 C 224.789062 309.550781 225.238281 309.410156 225.589844 309.3125 C 226.179688 309.148438 226.707031 309.191406 227.316406 309.03125 L 228.140625 308.789062 L 228.140625 308.628906 C 227.832031 308.300781 227.613281 307.871094 227.277344 307.578125 C 226.398438 306.808594 225.4375 306.042969 224.449219 305.402344 C 223.902344 305.046875 223.226562 304.816406 222.644531 304.515625 C 222.449219 304.414062 222.105469 304.359375 221.976562 304.191406 C 221.671875 303.792969 221.507812 303.285156 221.273438 302.824219 C 220.777344 301.851562 220.296875 300.785156 219.859375 299.761719 C 219.5625 299.0625 219.367188 298.371094 218.996094 297.742188 C 217.214844 294.734375 215.292969 292.917969 212.324219 291.132812 C 211.691406 290.753906 210.929688 290.601562 210.125 290.40625 L 208.828125 290.324219 C 208.566406 290.214844 208.292969 289.882812 208.042969 289.722656 C 207.058594 289.082031 204.535156 287.691406 203.804688 289.515625 C 203.34375 290.667969 204.492188 291.792969 204.902344 292.378906 C 205.191406 292.789062 205.5625 293.246094 205.769531 293.710938 C 205.902344 294.011719 205.925781 294.316406 206.042969 294.636719 C 206.328125 295.421875 206.574219 296.285156 206.945312 297.015625 C 207.132812 297.382812 207.335938 297.773438 207.574219 298.105469 C 207.71875 298.304688 207.964844 298.394531 208.003906 298.707031 C 207.761719 299.058594 207.75 299.597656 207.613281 300.039062 C 207 302.027344 207.230469 304.496094 208.121094 305.964844 C 208.394531 306.417969 209.039062 307.386719 209.929688 307.015625 C 210.703125 306.6875 210.527344 305.683594 210.753906 304.796875 C 210.800781 304.59375 210.769531 304.449219 210.871094 304.3125 L 210.871094 304.355469 L 211.578125 305.804688 C 212.097656 306.667969 213.027344 307.574219 213.8125 308.183594 C 214.222656 308.5 214.546875 309.046875 215.070312 309.230469 L 215.070312 309.191406 L 215.03125 309.191406 C 214.929688 309.027344 214.769531 308.960938 214.636719 308.828125 C 214.332031 308.519531 213.988281 308.136719 213.734375 307.78125 C 213.019531 306.785156 212.386719 305.691406 211.8125 304.554688 C 211.535156 304.011719 211.296875 303.414062 211.066406 302.863281 C 210.976562 302.648438 210.976562 302.328125 210.792969 302.21875 C 210.539062 302.621094 210.164062 302.949219 209.96875 303.425781 C 209.652344 304.191406 209.613281 305.121094 209.496094 306.089844 C 209.425781 306.113281 209.457031 306.097656 209.417969 306.128906 C 208.871094 305.992188 208.679688 305.414062 208.476562 304.917969 C 207.960938 303.664062 207.867188 301.644531 208.320312 300.203125 C 208.433594 299.828125 208.964844 298.652344 208.75 298.308594 C 208.648438 297.960938 208.3125 297.761719 208.121094 297.5 C 207.890625 297.175781 207.65625 296.746094 207.496094 296.371094 C 207.074219 295.394531 206.878906 294.296875 206.433594 293.308594 C 206.222656 292.835938 205.867188 292.355469 205.570312 291.941406 C 205.246094 291.476562 204.882812 291.132812 204.628906 290.574219 C 204.539062 290.371094 204.417969 290.054688 204.550781 289.847656 C 204.578125 289.714844 204.65625 289.632812 204.785156 289.605469 C 205.015625 289.425781 205.648438 289.664062 205.886719 289.765625 C 206.515625 290.035156 207.039062 290.289062 207.574219 290.652344 C 207.828125 290.824219 208.089844 291.164062 208.398438 291.257812 L 208.75 291.257812 C 209.304688 291.390625 209.921875 291.300781 210.4375 291.460938 C 211.351562 291.746094 212.167969 292.1875 212.910156 292.667969 C 215.171875 294.136719 217.023438 296.226562 218.289062 298.71875 C 218.492188 299.121094 218.578125 299.503906 218.757812 299.929688 C 219.121094 300.785156 219.578125 301.671875 219.9375 302.511719 C 220.296875 303.347656 220.644531 304.191406 221.152344 304.886719 C 221.421875 305.253906 222.449219 305.453125 222.917969 305.652344 C 223.246094 305.796875 223.785156 305.945312 224.097656 306.136719 C 224.691406 306.507812 225.265625 306.945312 225.824219 307.347656 C 226.101562 307.550781 226.960938 307.992188 227 308.355469 Z M 227 308.34375 "/>
</g>
<path style=" stroke:none;fill-rule:evenodd;fill:rgb(0%,38.038635%,54.119873%);fill-opacity:1;" d="M 209.457031 292.984375 C 209.171875 292.980469 208.96875 293.015625 208.75 293.066406 L 208.75 293.105469 L 208.789062 293.105469 C 208.929688 293.394531 209.171875 293.582031 209.339844 293.832031 L 209.734375 294.679688 L 209.773438 294.636719 C 210.015625 294.460938 210.125 294.179688 210.125 293.75 C 210.027344 293.644531 210.011719 293.511719 209.929688 293.386719 C 209.816406 293.21875 209.59375 293.125 209.457031 292.984375 Z M 209.457031 292.984375 "/>
<g clip-path="url(#clip17)" clip-rule="nonzero">
<path style=" stroke:none;fill-rule:evenodd;fill:rgb(89.408875%,55.688477%,0%);fill-opacity:1;" d="M 226.082031 319.960938 C 226.082031 320.976562 226.863281 321.660156 227.738281 321.660156 C 228.609375 321.660156 229.390625 320.976562 229.390625 319.960938 C 229.390625 318.945312 228.609375 318.261719 227.738281 318.261719 C 226.863281 318.261719 226.082031 318.945312 226.082031 319.960938 Z M 229.019531 319.960938 C 229.019531 320.730469 228.449219 321.308594 227.734375 321.308594 C 227.015625 321.308594 226.453125 320.730469 226.453125 319.960938 C 226.453125 319.191406 227.015625 318.613281 227.734375 318.613281 C 228.445312 318.613281 229.019531 319.191406 229.019531 319.960938 Z M 228.183594 320.929688 L 228.550781 320.929688 L 228.011719 320.078125 C 228.300781 320.046875 228.523438 319.902344 228.523438 319.546875 C 228.523438 319.152344 228.277344 318.992188 227.8125 318.992188 L 227.074219 318.992188 L 227.074219 320.929688 L 227.390625 320.929688 L 227.390625 320.09375 L 227.6875 320.09375 Z M 227.390625 319.820312 L 227.390625 319.261719 L 227.757812 319.261719 C 227.949219 319.261719 228.175781 319.296875 228.175781 319.527344 C 228.175781 319.796875 227.96875 319.820312 227.730469 319.820312 Z M 227.390625 319.820312 "/>
</g>
<g clip-path="url(#clip18)" clip-rule="nonzero">
<path style=" stroke:none;fill-rule:nonzero;fill:rgb(100%,83.918762%,0%);fill-opacity:1;" d="M 92.707031 61.195312 L 127.128906 61.195312 L 127.128906 95.613281 L 92.707031 95.613281 Z M 92.707031 61.195312 "/>
</g>
<path style=" stroke:none;fill-rule:nonzero;fill:rgb(0%,0%,0.389099%);fill-opacity:1;" d="M 115.210938 86.960938 C 115.875 88.035156 116.59375 89.0625 118.117188 89.0625 C 119.394531 89.0625 120.066406 88.425781 120.066406 87.546875 C 120.066406 86.496094 119.371094 86.121094 117.964844 85.507812 L 117.195312 85.179688 C 114.96875 84.234375 113.484375 83.050781 113.484375 80.550781 C 113.484375 78.246094 115.25 76.496094 118.007812 76.496094 C 119.96875 76.496094 121.378906 77.175781 122.398438 78.953125 L 119.992188 80.492188 C 119.464844 79.546875 118.890625 79.175781 118.007812 79.175781 C 117.101562 79.175781 116.527344 79.746094 116.527344 80.492188 C 116.527344 81.414062 117.101562 81.785156 118.425781 82.355469 L 119.199219 82.683594 C 121.824219 83.800781 123.304688 84.945312 123.304688 87.511719 C 123.304688 90.273438 121.121094 91.789062 118.1875 91.789062 C 115.320312 91.789062 113.691406 90.351562 112.785156 88.570312 Z M 104.136719 87.039062 C 104.621094 87.902344 105.355469 88.570312 106.414062 88.570312 C 107.421875 88.570312 108.007812 88.171875 108.007812 86.617188 L 108.007812 76.492188 L 111.191406 76.492188 L 111.191406 87.105469 C 111.191406 90.324219 109.324219 91.789062 106.597656 91.789062 C 104.136719 91.789062 102.355469 90.121094 101.632812 88.570312 Z M 104.136719 87.039062 "/>
</g>
</svg>
